<?xml version="1.0" encoding="UTF-8"?>
<svg width="508px" height="424px" viewBox="0 0 508 424" version="1.1" xmlns="http://www.w3.org/2000/svg" xmlns:xlink="http://www.w3.org/1999/xlink">
    <title>signal</title>
    <g id="Page-1" stroke="none" stroke-width="1" fill="none" fill-rule="evenodd">
        <g id="signal" transform="translate(0.000000, -0.000000)" fill="#307404" fill-rule="nonzero">
            <path d="M493.9,0.649825778 C501.7,0.649825778 508,6.951 508,14.751 C508,22.4455946 501.86912,28.6804558 494.215383,28.8475604 L493.9,28.851 L411.9,28.851 L411.9,85.851 L440.6,85.851 C477.428,85.851 507.3953,115.45002 507.990963,152.137123 L508,153.251 L508,355.951 C508,392.779 478.40098,422.7463 441.713877,423.341963 L440.6,423.351 L67.4,423.351 C30.572,423.351 0.6047,393.75198 0.0090368,357.064877 L0,355.951 L0,153.251 C0,116.423 29.59902,86.4557 66.2861232,85.7630069 L67.4,85.751 L96.1,85.751 L96.1,28.751 L14.1,28.751 C6.3,28.751 0,22.451 0,14.651 C0,6.955 6.13312,0.719266667 13.7888114,0.649273842 L493.9,0.649825778 Z M378,223.751 C375.1,223.751 372.7,226.151 372.7,229.051 L372.7,274.851 C372.7,277.751 375.1,280.151 378,280.151 L396,280.151 C398.9,280.151 401.3,277.751 401.3,274.851 C401.4,271.851 399,269.451 396,269.451 L383.3,269.451 L383.3,229.051 C383.3,226.151 380.9,223.751 378,223.751 Z M291.1,222.751 C288.9,222.751 286.9,224.151 286.1,226.151 L268.5,271.951 C267.4,274.751 268.7,278.051 271.6,278.851 C275.1,279.851 277.7,277.951 278.5,275.751 L282.5,265.451 L299.7,265.451 L303.7,275.751 C304.8,278.551 307.8,279.851 310.6,278.851 C313.4,277.751 314.7,274.751 313.7,271.951 L296.1,226.151 C295.3,224.051 293.3,222.751 291.1,222.751 Z M178.8,222.751 C176.6,222.751 174.6,224.151 173.8,226.151 L156.2,271.951 C155.1,274.751 156.4,278.051 159.3,278.851 C162.8,279.851 165.4,277.951 166.2,275.751 L170.2,265.451 L187.4,265.451 L191.4,275.751 C192.5,278.551 195.5,279.851 198.3,278.851 C201.1,277.751 202.4,274.751 201.4,271.951 L183.8,226.151 C183,224.051 181,222.751 178.8,222.751 Z M437.5,222.751 L419.4,222.751 C416.5,222.751 414.1,225.151 414.1,228.051 L414.1,273.851 C414.1,276.751 416.5,279.151 419.4,279.151 L437.5,279.151 C440.4,279.151 442.8,276.751 442.8,273.851 C442.8,270.951 440.4,268.551 437.5,268.551 L424.8,268.551 L424.8,256.351 L437.5,256.351 C440.4,256.351 442.8,253.951 442.8,251.051 C442.8,248.151 440.4,245.751 437.5,245.751 L424.8,245.751 L424.8,233.551 L437.5,233.551 L437.5,233.351 C440.4,233.351 442.8,230.951 442.8,228.051 C442.8,225.151 440.4,222.751 437.5,222.751 Z M235.8,222.751 C232.9,222.751 230.5,225.151 230.5,228.051 L230.5,273.851 C230.5,276.751 232.9,279.151 235.8,279.151 L253.9,279.151 C256.8,279.151 259.2,276.751 259.2,273.851 C259.2,270.851 256.8,268.451 253.8,268.451 L241.1,268.451 L241.1,228.051 C241.1,225.151 238.7,222.751 235.8,222.751 Z M113.8,223.051 C111,224.051 109.6,227.151 110.6,229.851 L127.3,275.651 C128.1,277.751 130.1,279.151 132.3,279.151 C134.5,279.151 136.5,277.751 137.3,275.651 L154,229.851 C155,227.051 153.5,224.051 150.8,223.051 C148,222.051 145,223.451 144,226.251 L132.3,258.351 L120.6,226.251 C119.6,223.451 116.5,222.051 113.8,223.051 Z M85.5,222.751 C83.3,222.751 81.3,224.151 80.5,226.151 L63,271.851 C61.9,274.651 63.2,277.951 66.1,278.751 C69.6,279.751 72.2,277.851 73,275.651 L77,265.351 L94.2,265.351 L98.2,275.651 C99.3,278.451 102.3,279.751 105.1,278.751 C107.9,277.651 109.2,274.651 108.2,271.851 L90.5,226.151 C89.7,224.051 87.7,222.751 85.5,222.751 Z M343.2,222.651 L331.2,222.651 C328.3,222.651 325.9,225.051 325.9,227.951 L325.9,273.751 C325.9,276.651 328.3,279.051 331.2,279.051 L343.2,279.051 C352.4,279.051 360,271.551 360,262.251 C360,257.851 358.2,253.751 355.4,250.751 C358.2,247.751 360,243.751 360,239.251 C359.9,230.151 352.4,222.651 343.2,222.651 Z M216,222.651 C213.1,222.651 210.7,225.051 210.7,227.951 L210.7,273.751 C210.7,276.651 213.1,279.051 216,279.051 C218.9,279.051 221.3,276.651 221.3,273.751 L221.3,227.951 C221.3,225.051 218.9,222.651 216,222.651 Z M343.2,256.251 C346.6,256.251 349.3,258.951 349.3,262.351 C349.3,265.751 346.5,268.451 343.2,268.451 L336.5,268.451 L336.5,256.251 L343.2,256.251 Z M291.1,242.851 L295.6,254.651 L286.6,254.651 L291.1,242.851 Z M178.8,242.851 L183.3,254.651 L174.3,254.651 L178.8,242.851 Z M85.5,242.851 L90,254.651 L81,254.651 L85.5,242.851 Z M343.2,233.351 C346.6,233.351 349.3,236.051 349.3,239.451 C349.2,242.851 346.5,245.551 343.2,245.551 L336.5,245.551 L336.5,233.351 L343.2,233.351 Z M383.6,28.751 L124.3,28.751 L124.3,85.751 L383.6,85.751 L383.6,28.751 Z" id="Combined-Shape"></path>
        </g>
    </g>
</svg>