<svg id="Layer_1" enable-background="new 0 0 512 512" height="512" viewBox="0 0 512 512" width="512" xmlns="http://www.w3.org/2000/svg"><path d="m486.011 165.032h-69.29c-.017 0-.034 0-.052 0h-84.943c-.017 0-.034 0-.052 0h-84.944c-.017 0-.034 0-.052 0h-40.41v-26.405c0-56.865-46.266-103.127-103.134-103.127s-103.134 46.262-103.134 103.127v166.055c0 4.174 3.383 7.557 7.557 7.557s7.557-3.383 7.557-7.557v-166.055c0-48.531 39.485-88.014 88.019-88.014s88.02 39.483 88.02 88.014v298.346c0 13.462-10.953 24.414-24.415 24.414h-127.208c-13.463 0-24.415-10.952-24.415-24.414v-91.36c0-4.174-3.383-7.557-7.557-7.557s-7.558 3.382-7.558 7.556v91.36c0 21.796 17.733 39.528 39.53 39.528h127.209c21.797 0 39.53-17.732 39.53-39.528v-168.879h76.589c.009 0 .018.002.026.002.013 0 .027-.002.041-.002h84.928c.009 0 .018.002.026.002.013 0 .027-.002.041-.002h84.928c.009 0 .018.002.026.002.013 0 .027-.002.041-.002h33.096c14.331 0 25.989-11.658 25.989-25.988v-51.085c0-14.33-11.658-25.988-25.989-25.988zm-113.075 87.948-30.011-72.835h68.647l30.011 72.835zm-84.995 0-30.012-72.835h68.648l30.011 72.835zm-81.672-72.835h35.313l30.011 72.835h-65.325v-72.835zm290.617 61.96c0 5.996-4.879 10.875-10.875 10.875h-28.079l-30.011-72.835h58.091c5.997 0 10.875 4.879 10.875 10.875v51.085z"/><path d="m145.717 245.5h-27.194c-4.174 0-7.557 3.383-7.557 7.557s3.383 7.557 7.557 7.557h27.194c10.174 0 18.452-8.29 18.452-18.479v-84.876c0-10.19-8.277-18.479-18.452-18.479h-84.881c-10.19 0-18.48 8.289-18.48 18.479v84.876c0 10.19 8.29 18.479 18.48 18.479h20.822c4.174 0 7.557-3.383 7.557-7.557s-3.383-7.557-7.557-7.557h-20.822c-1.824 0-3.365-1.542-3.365-3.366v-84.876c0-1.824 1.541-3.365 3.365-3.365h84.881c1.809 0 3.337 1.542 3.337 3.365v84.876c0 1.824-1.528 3.366-3.337 3.366z"/></svg>