<?xml version="1.0" encoding="UTF-8"?>
<svg width="293px" height="309px" viewBox="0 0 293 309" version="1.1" xmlns="http://www.w3.org/2000/svg" xmlns:xlink="http://www.w3.org/1999/xlink">
    <title>settings (1) copy</title>
    <g id="Page-1" stroke="none" stroke-width="1" fill="none" fill-rule="evenodd">
        <g id="settings-(1)-copy" fill-rule="nonzero">
            <path d="M162.179,140.514 C165.556,138.787 169.318,137.874 173.221,137.874 C179.689,137.874 185.77,140.385 190.354,144.945 L200.222,135.078 C224.642,143.638 252.886,138.158 272.408,118.637 C288.834,102.211 295.312,79.611 291.854,58.308 C291.473,55.962 289.812,54.027 287.551,53.297 C285.29,52.566 282.808,53.16 281.128,54.841 L266.476,69.493 C254.544,81.425 235.197,81.425 223.265,69.493 C211.332,57.561 211.332,38.214 223.265,26.282 L237.917,11.63 C239.598,9.949 240.197,7.467 239.465,5.205 C238.734,2.942 236.796,1.285 234.449,0.904 C213.147,-2.554 190.546,3.924 174.121,20.35 C154.309,40.162 148.977,68.954 158.089,93.619 L136.687,115.021 L162.179,140.514 Z" id="Path" fill="#307404"></path>
            <path d="M123.179,179.296 L97.794,153.911 L9.029,242.675 C-2.513,254.217 -2.513,272.93 9.029,284.472 C20.571,296.014 39.284,296.014 50.826,284.472 L127.347,207.952 C119.629,200.193 118.238,188.479 123.179,179.296 Z" id="Path" fill="#307404"></path>
            <path d="M179.795,155.597 C177.98,153.782 175.6,152.874 173.221,152.874 C170.842,152.874 168.462,153.782 166.647,155.597 L161.348,160.896 L66.956,66.504 L71.368,62.092 C75.388,58.073 74.889,51.406 70.307,48.032 L31.795,19.669 C28.094,16.944 22.958,17.331 19.708,20.581 L3.356,36.934 C0.106,40.184 -0.281,45.321 2.444,49.021 L30.806,87.533 C34.18,92.114 40.843,92.618 44.866,88.594 L49.278,84.181 L143.67,178.573 L137.998,184.245 C134.367,187.876 134.367,193.762 137.998,197.393 L225.077,284.472 C236.619,296.014 255.332,296.014 266.874,284.472 C278.416,272.93 278.416,254.217 266.874,242.675 L179.795,155.597 Z" id="Path" fill="#307404"></path>
            <g id="check-mark-circle" transform="translate(177.000000, 201.000000)" fill="#2A4817">
                <path d="M54,0 C24.2253205,0 0,24.2253205 0,54 C0,83.7767679 24.2253205,108 54,108 C83.7767679,108 108,83.7767679 108,54 C108,24.2253205 83.7767679,0 54,0 Z M50.1844024,68.4200491 L31.5254965,49.7607952 L34.4622049,46.8240868 L50.1844024,62.5462843 L78.496819,34.2338677 L81.4335274,37.1705761 L50.1844024,68.4200491 Z" id="Shape"></path>
            </g>
        </g>
    </g>
</svg>