<svg xmlns="http://www.w3.org/2000/svg" width="43" height="37" viewBox="0 0 43 37">
    <path fill="#53d6a5" fill-rule="evenodd" d="M4.5 3.964v6.607h10.364V3.964h12.954v6.607h10.364V3.964h2.59V37H1.91V3.964H4.5zm23.329 9.25c-2.43 0-4.422 1.964-4.504 4.44v2.96a6.18 6.18 0 0 0 1.902 4.564v1.043c-.002.619-.083 1.545-2.59 2.099-1.553.347-2.642 1.774-2.592 3.394h15.546s-.048-2.873-2.494-3.39c-2.67-.574-2.688-1.543-2.688-2.16v-.99a6.2 6.2 0 0 0 1.923-4.56v-2.96c-.082-2.476-2.074-4.44-4.503-4.44zm-11.67 10.572H7.091c-.716 0-1.296.591-1.296 1.321s.58 1.322 1.296 1.322h9.068c.716 0 1.296-.592 1.296-1.322 0-.73-.58-1.321-1.296-1.321zM13.57 18.5H7.09c-.716 0-1.296.592-1.296 1.321 0 .73.58 1.322 1.296 1.322h6.477c.716 0 1.296-.592 1.296-1.322 0-.73-.58-1.321-1.296-1.321zm3.886-5.286H7.09c-.716 0-1.296.592-1.296 1.322 0 .73.58 1.321 1.296 1.321h10.364c.715 0 1.295-.591 1.295-1.321s-.58-1.322-1.295-1.322zM12.273 0v7.929H7.09V0h5.182zM35.59 0v7.929h-5.182V0h5.182z"/>
</svg>
