<svg xmlns="http://www.w3.org/2000/svg" width="22" height="19" viewBox="0 0 22 19">
    <path fill="#25c0b0" fill-rule="evenodd" d="M13.893 0L8.464 2.036 1 0v12.214h1.357v1.357H1v3.393L8.464 19l5.429-2.036L21.357 19V2.036L13.893 0zM6.225 13.571H3.646v-1.357h2.579v1.357zm1.357-.034l-.136-1.323a2.714 2.714 0 0 0 1.799-.95l1.018.882a4.038 4.038 0 0 1-2.68 1.391zM11.246 9.5v.102a4.071 4.071 0 0 1-.203 1.221l-1.29-.44c.084-.253.13-.516.136-.781V9.5a4.037 4.037 0 0 1 .373-1.73l1.256.576a2.68 2.68 0 0 0-.272 1.154zm2.715-2.714c-.679 0-1.332.254-1.832.712l-.916-.984A4.071 4.071 0 0 1 13.96 5.43v1.357zm4.818 1.459a.679.679 0 0 1-.95 0L16.64 7.057 15.42 8.28a.679.679 0 0 1-.95-.95l1.221-1.222-1.187-1.187a.679.679 0 0 1 .95-.95l1.187 1.187 1.154-1.153a.679.679 0 1 1 .95.95L17.59 6.107l1.188 1.188a.679.679 0 0 1 0 .95z"/>
</svg>
