<svg xmlns="http://www.w3.org/2000/svg" width="43" height="37" viewBox="0 0 43 37">
    <g fill="none" fill-rule="evenodd">
        <path fill="#53d6a5" d="M38.09-1.947a2 2 0 0 1 2 2V35a2 2 0 0 1-2 2H3.91a2 2 0 0 1-2-2V.053a2 2 0 0 1 2-2h34.18zm-1.305 32.016h-3.49v3.559h3.49v-3.56zm-6.979 0h-3.49v3.559h3.49v-3.56zm-6.979 0h-3.49v3.559h3.49v-3.56zm-8.723-7.12h-6.98c-.962 0-1.744.798-1.744 1.78v7.12c0 .982.782 1.779 1.745 1.779h6.979c.963 0 1.744-.797 1.744-1.78V24.73c0-.982-.781-1.78-1.744-1.78zm19.192 3.56h-3.49v3.56h3.49v-3.56zm-6.98 0h-3.489v3.56h3.49v-3.56zm-13.957 0v3.56h-3.49v-3.56h3.49zm24.426-3.56h-3.49v3.56h3.49v-3.56zm-13.958 0h-3.49v3.56h3.49v-3.56zm6.98 0h-3.49v3.56h3.49v-3.56zm-3.49-3.559h-3.49v3.56h3.49v-3.56zm6.979 0h-3.49v3.56h3.49v-3.56zM8.87 15.83H5.38v3.56h3.49v-3.56zm6.978 0H12.36v3.56h3.49v-3.56zm6.98 0h-3.49v3.56h3.49v-3.56zm6.978 0h-3.49v3.56h3.49v-3.56zm6.98 0h-3.49v3.56h3.49v-3.56zM14.103 1.594h-6.98c-.962 0-1.744.798-1.744 1.78v7.119c0 .982.782 1.78 1.745 1.78h6.979c.963 0 1.744-.798 1.744-1.78V3.373c0-.982-.781-1.78-1.744-1.78zm20.936 0h-6.978c-.964 0-1.745.798-1.745 1.78v7.119c0 .982.781 1.78 1.745 1.78h6.978c.963 0 1.745-.798 1.745-1.78V3.373c0-.982-.782-1.78-1.745-1.78zm-12.213 7.12h-3.49v3.559h3.49v-3.56zM12.36 5.152v3.56h-3.49v-3.56h3.49zm20.937 0v3.56h-3.49v-3.56h3.49zm-10.469-3.56h-3.49v3.56h3.49v-3.56z"/>
    </g>
</svg>
