<svg xmlns="http://www.w3.org/2000/svg" width="22" height="19" viewBox="0 0 22 19">
    <path fill="#25c0b0" fill-rule="evenodd" d="M11 0C5.477 0 1 4.477 1 10s4.477 10 10 10 10-4.477 10-10C20.994 4.48 16.52.006 11 0zm.664 15.352a.937.937 0 0 1-1.325-1.325.967.967 0 0 1 1.325 0 .943.943 0 0 1 0 1.325zm.93-4.908c-.969.968-.969 1.354-.969 1.8v.258a.625.625 0 1 1-1.25 0v-.257c0-.765.098-1.448 1.334-2.685 1.021-1.02 1.162-1.594 1.162-2.062 0-.02-.022-1.87-1.871-1.87-1.79 0-2.182 1.35-2.182 1.87a.625.625 0 1 1-1.25 0c0-1.207.932-3.12 3.432-3.12 2.273 0 3.12 1.913 3.12 3.12 0 .994-.456 1.876-1.527 2.946z"/>
</svg>
