<svg xmlns="http://www.w3.org/2000/svg" width="43" height="37" viewBox="0 0 43 37">
    <path fill="#53d6a5" fill-rule="evenodd" d="M21 0C10.456 0 1.91 8.719 1.91 19.474S10.455 38.947 21 38.947s19.09-8.718 19.09-19.473C40.08 8.724 31.54.012 21 0zm1.267 29.896a1.795 1.795 0 0 1-1.27.535 1.789 1.789 0 0 1-1.65-1.129 1.851 1.851 0 0 1 .39-1.987 1.82 1.82 0 0 1 2.53 0 1.863 1.863 0 0 1 0 2.58v.001zm1.774-9.557c-1.848 1.885-1.848 2.636-1.848 3.505v.503c0 .672-.534 1.217-1.193 1.217a1.205 1.205 0 0 1-1.193-1.217v-.502c0-1.49.188-2.82 2.547-5.228 1.949-1.987 2.217-3.105 2.217-4.016 0-.037-.04-3.642-3.571-3.642-3.417 0-4.165 2.629-4.165 3.641 0 .673-.535 1.218-1.194 1.218a1.205 1.205 0 0 1-1.193-1.218c0-2.349 1.779-6.075 6.552-6.075 4.34 0 5.958 3.726 5.958 6.075 0 1.938-.873 3.654-2.917 5.739z"/>
</svg>
