<svg xmlns="http://www.w3.org/2000/svg" width="144" height="144" viewBox="0 0 144 144">
    <path fill="#25c0b0" fill-rule="evenodd" d="M175.944 2.683c2.464-.311 4.802-1.624 7.056-2.433-4.451 9.602-10.803 17.438-22.52 18.786-3.171.365-6.404.338-9.605.277-10.308-.197-20.517-.122-29.955 5.042-6.498 3.555-12.237 8.068-17.446 13.243C99.33 41.715 95.475 46.121 91.863 50c-5.222-5.27-10.488-10.836-16.024-16.12-11.184-10.678-24.538-15.548-40.05-14.67-4.503.255-9.084.163-13.559-.363-7.125-.84-12.916-4.29-16.96-10.331C3.5 5.87 1.912 3.105 0 0c10.146 4.875 20.338 3.96 30.506 3.14 6.762-.543 13.49-.756 20.254.217 5.826.838 10.668 3.182 14.15 7.985 4.253 5.87 8.322 11.877 12.69 17.66 1.874 2.482 4.284 4.564 6.481 6.798.802.815 1.619.909 2.8.391 3.132-1.373 6.42-1.383 9.563-.024 1.236.534 2.03.377 2.987-.422 4.343-3.618 7.628-8.11 10.765-12.744 2.345-3.462 4.872-6.802 7.179-10.288 4.352-6.577 10.725-9.021 18.283-9.769 8.425-.832 16.718.608 25.073.72 5.07.067 10.178-.345 15.213-.981zM156.84 24.402c4.177.314 8.36.462 12.159-2.402-1.657 10.032-11.315 17.306-21.059 15.803-6.835-1.054-13.592-2.655-20.403-3.893-4.438-.806-8.903-1.683-13.538-.662 7.537-5.878 15.369-11.02 25.336-10.308 5.84.417 11.667 1.024 17.505 1.462zM72 33.247c-7.707-1.334-14.997 1.137-22.386 2.443-3.577.632-7.11 1.576-10.701 2.07-7.904 1.084-14.34-1.424-18.451-9.063C19.376 26.681 18.355 24.627 17 22c7.732 4.38 15.146 2.017 22.496 1.455 3.269-.25 6.551-.518 9.824-.464 8.834.144 15.828 4.98 22.68 10.256zm-5.426 4.34c6.033-1.428 11.219-.358 15.426 4.41-1.48.103-3.122-.154-4.415.379-3.574 1.472-7.058 3.176-10.468 4.982-2.318 1.228-4.5 2.527-7.283 2.632-3.501.133-6.351-1.119-8.724-3.423-1.505-1.461-2.778-3.146-4.11-4.68 6.72-1.467 13.172-2.787 19.574-4.3zM105 41.114c4.421-5.01 9.772-5.96 15.957-4.478 6.323 1.514 12.703 2.807 19.043 4.194-1.706 6.073-10.545 10.112-16.78 7.206-2.56-1.192-4.895-2.82-7.37-4.188-4.318-2.39-5.902-2.772-10.85-2.734z"/>
</svg>
