<svg xmlns="http://www.w3.org/2000/svg" width="19" height="18" viewBox="0 0 19 18">
    <path fill="#1F2026" fill-rule="evenodd" d="M1.668 0a.99.99 0 0 0-.979 1v4c0 .552.439 1 .979 1h3.914a.99.99 0 0 0 .978-1V1a.99.99 0 0 0-.978-1H1.668zm6.849 0v2h1.957V0H8.517zm4.892 0a.99.99 0 0 0-.978 1v4c0 .552.438 1 .978 1h3.914a.99.99 0 0 0 .979-1V1a.99.99 0 0 0-.979-1H13.41zM2.646 2h1.957v2H2.646V2zm11.742 0h1.957v2h-1.957V2zM8.517 4v2h1.957V4H8.517zM.689 8v2h1.957V8H.69zm3.914 0v2H6.56V8H4.603zm3.914 0v2h1.957V8H8.517zm1.957 2v2h1.957v-2h-1.957zm1.957 0h1.957V8H12.43v2zm1.957 0v2h1.957v-2h-1.957zm1.957 0h1.957V8h-1.957v2zm0 2v2h1.957v-2h-1.957zm0 2h-1.957v2h1.957v-2zm0 2v2h1.957v-2h-1.957zm-1.957 0H12.43v2h1.957v-2zm-1.957 0v-2h-1.957v2h1.957zm-1.957 0H8.517v2h1.957v-2zm0-2v-2H8.517v2h1.957zm1.957 0h1.957v-2H12.43v2zM1.668 12a.99.99 0 0 0-.979 1v4c0 .552.439 1 .979 1h3.914a.99.99 0 0 0 .978-1v-4a.99.99 0 0 0-.978-1H1.668zm.978 2h1.957v2H2.646v-2z" opacity=".5"/>
</svg>
