<?xml version="1.0" encoding="UTF-8"?>
<svg width="512px" height="439px" viewBox="0 0 512 439" version="1.1" xmlns="http://www.w3.org/2000/svg" xmlns:xlink="http://www.w3.org/1999/xlink">
    <title>sold</title>
    <g id="Page-1" stroke="none" stroke-width="1" fill="none" fill-rule="evenodd">
        <g id="sold" fill="#DB4949" fill-rule="nonzero">
            <path d="M235.886719,89.46875 C241.988281,92.371094 248.808594,94 256,94 C263.195312,94 270.011719,92.371094 276.113281,89.46875 L318.738281,132.09375 L361.164062,132.09375 L297.703125,68.636719 C301.078125,62.152344 303,54.800781 303,47 C303,21.085938 281.914062,0 256,0 C230.085938,0 209,21.085938 209,47 C209,54.800781 210.921875,62.152344 214.296875,68.636719 L150.835938,132.09375 L193.261719,132.09375 L235.886719,89.46875 Z" id="Path"></path>
            <path d="M204.914062,277.414062 C193.605469,277.414062 184.503906,285.992188 184.503906,300.164062 C184.503906,314.335938 193.605469,322.914062 204.914062,322.914062 C216.226562,322.914062 225.324219,314.335938 225.324219,300.164062 C225.324219,285.992188 216.226562,277.414062 204.914062,277.414062 Z" id="Path"></path>
            <path d="M391.203125,278.585938 L378.332031,278.585938 L378.332031,321.746094 L391.203125,321.746094 C404.074219,321.746094 412.914062,314.074219 412.914062,300.164062 C412.914062,286.253906 404.074219,278.585938 391.203125,278.585938 L391.203125,278.585938 Z" id="Path"></path>
            <path d="M0,162.09375 L0,438.570312 L512,438.570312 L512,162.09375 L0,162.09375 Z M105.726562,347.746094 C90.515625,347.746094 75.171875,343.976562 66.074219,338.386719 L75.953125,316.027344 C84.535156,321.097656 95.976562,324.347656 105.984375,324.347656 C114.695312,324.347656 117.816406,322.527344 117.816406,319.40625 C117.816406,307.964844 67.503906,317.195312 67.503906,283.265625 C67.503906,266.363281 81.675781,252.582031 109.886719,252.582031 C122.105469,252.582031 134.714844,255.183594 144.207031,260.511719 L134.976562,282.742188 C126.003906,278.195312 117.554688,275.984375 109.625,275.984375 C100.652344,275.984375 97.792969,278.585938 97.792969,281.703125 C97.792969,292.625 148.105469,283.523438 148.105469,317.066406 C148.105469,333.707031 133.9375,347.746094 105.726562,347.746094 L105.726562,347.746094 Z M204.914062,347.746094 C175.273438,347.746094 153.5625,327.726562 153.5625,300.164062 C153.5625,272.605469 175.273438,252.582031 204.914062,252.582031 C234.554688,252.582031 256.265625,272.605469 256.265625,300.164062 C256.265625,327.726562 234.554688,347.746094 204.914062,347.746094 Z M339.203125,345.667969 L267.441406,345.667969 L267.441406,254.664062 L298.125,254.664062 L298.125,321.875 L339.203125,321.875 L339.203125,345.667969 Z M392.503906,345.667969 L347.648438,345.667969 L347.648438,254.664062 L392.503906,254.664062 C422.925781,254.664062 443.855469,271.953125 443.855469,300.164062 C443.855469,328.375 422.925781,345.667969 392.503906,345.667969 Z" id="Shape"></path>
        </g>
    </g>
</svg>